<svg xmlns="http://www.w3.org/2000/svg" xmlns:xlink="http://www.w3.org/1999/xlink" width="72" height="72" viewBox="0 0 72 72">
    <defs>
        <path id="a" d="M0 36c0 19.882 16.118 36 36 36s36-16.118 36-36S55.882 0 36 0 0 16.118 0 36z"/>
    </defs>
    <g fill="none" fill-rule="evenodd">
        <path fill="#1877F2" d="M0 36C0 16.118 16.118 0 36 0s36 16.118 36 36-16.118 36-36 36S0 55.882 0 36"/>
        <g transform="translate(0 .07)">
            <mask id="b" fill="#fff">
                <use xlink:href="#a"/>
            </mask>
            <path fill="#FFF" d="M48.6 49.34l1.412-9.215h-8.84v-5.979c0-2.52 1.235-4.978 5.195-4.978h4.019v-7.844s-3.648-.622-7.135-.622c-7.281 0-12.04 4.412-12.04 12.4v7.023h-8.093v9.214h8.093v22.274a32.118 32.118 0 0 0 9.961 0V49.339H48.6z" mask="url(#b)"/>
        </g>
    </g>
</svg>
